# xmcd
#
# Track frame offsets:
#	150
#	12915
#	55062
#	70890
#	86387
#	99025
#	108342
#	119105
#	130200
#	139620
#	159547
#	169642
#	189057
#
# Disc length: 2750 seconds
#
# Revision: 1
# Processed by: cddbd v1.5.2PL0 Copyright (c) Steve Scherf et al.
# Submitted via: audiograbber 1.83.01
#
DISCID=9e0abc0d
DTITLE=Various Artist - Boxcar Willie and Friends
DYEAR=1994
DGENRE=Country
TTITLE0=Boxcar Willie - Hobo Heaven
TTITLE1=Boxcar Willie and Friends - Medley
TTITLE2=Johnny Rodrigues - North Of The Border
TTITLE3=Johnny Rodrigues - How Could I Love
TTITLE4=Bobby Bare - Tequila Sheila
TTITLE5=Bobby Bare - White Freight Liner Blues
TTITLE6=Gene Watson - Farewell Party
TTITLE7=Gene Watson - Memories To Burn
TTITLE8=Bellamy Bothers - Let Your Love Flow
TTITLE9=Bellamy Bothers - If I Sad You Had A Beautiful Body
TTITLE10=Freddy Fender - Befor The Next Teardrop Falls
TTITLE11=Freddy Fender - Secret Love
TTITLE12=Freddy Fender - Whiskey River
EXTD=YEAR: 1994
EXTT0=
EXTT1=
EXTT2=
EXTT3=
EXTT4=
EXTT5=
EXTT6=
EXTT7=
EXTT8=
EXTT9=
EXTT10=
EXTT11=
EXTT12=
PLAYORDER=
